{"title":"Marauders (2016) HQ 1080p Blu-ray x264 DTS-HD En + AC3 5.1 Fr MS","uid":15834098,"size":11801544017,"categoryP":"video","categoryS":"hd___movies","magnet":"?xt=urn:btih:0a03153dbe4e26a9ead93b259d39752146d56e9a&amp;dn=Marauders+%282016%29+HQ+1080p+Blu-ray+x264+DTS-HD+En+%2B+AC3+5.1+Fr+MS&amp;tr=udp%3A%2F%2Ftracker.leechers-paradise.org%3A6969&amp;tr=udp%3A%2F%2Fzer0day.ch%3A1337&amp;tr=udp%3A%2F%2Fopen.demonii.com%3A1337&amp;tr=udp%3A%2F%2Ftracker.coppersurfer.tk%3A6969&amp;tr=udp%3A%2F%2Fexodus.desync.com%3A6969","seeders":17,"leechers":10,"uploader":"SaM","files":3,"time":1473952997,"description":"\n1080p Blu-ray Rip x264\r\n\r\n\r\n\r\nEnglsih DTS-HDMA 5.1 Audio\r\n\r\nFrançais AC3 5.1 Audio\r\n\r\n\r\n\r\n\r\nEnglish, Spanish + English SDH + Foreign Subtitles \r\n \nhttp://extraimago.com/image/wI63 \nhttp://extraimago.com/image/wI6b \nhttp://extraimago.com/image/wI6h \nhttp://extraimago.com/image/wI6d \nhttp://extraimago.com/image/wI6I \nhttp://extraimago.com/image/wI6i \nhttp://extraimago.com/image/wI6m \nhttp://extraimago.com/image/wI6R \nhttp://extraimago.com/image/wI6Q \nhttp://extraimago.com/image/wI6L \nhttp://extraimago.com/image/wI6y\r\n\r\nSpecs:\r\nSource: BD50 @ HDC\r\n\r\nFormat : Matroska\r\nFile size : 10.9 GiB\r\nDuration : 1 h 47 min\r\nOverall bit rate : 14.5 Mb/s\r\n\r\nVideo\r\nFormat : AVC\r\nFormat/Info : Advanced Video Codec\r\nFormat profile :   \r\nFormat settings, CABAC : Yes\r\nFormat settings, ReFrames : 5 frames\r\nCodec ID : V_MPEG4/ISO/AVC\r\nDuration : 1 h 47 min\r\nBit rate : 10 000 kb/s\r\nWidth : 1 920 pixels\r\nHeight : 800 pixels\r\nDisplay aspect ratio : 2.40:1\r\nFrame rate mode : Constant\r\nFrame rate : 23.976 (24000/1001) FPS\r\nColor space : YUV\r\nChroma subsampling : 4:2:0\r\nBit depth : 8 bits\r\nScan type : Progressive\r\nBits/(Pixel*Frame) : 0.272\r\nStream size : 7.48 GiB (69%)\r\n\r\nAudio #1\r\nID : 2\r\nFormat : DTS\r\nFormat/Info : Digital Theater Systems\r\nFormat profile : MA / Core\r\nMode : 16\r\nFormat settings, Endianness : Big\r\nCodec ID : A_DTS\r\nDuration : 1 h 47 min\r\nBit rate mode : Variable / Constant\r\nBit rate : 3 840 kb/s / 1 509 kb/s\r\nChannel(s) : 6 channels\r\nChannel positions : Front: L C R, Side: L R, LFE\r\nSampling rate : 48.0 kHz\r\nFrame rate : 93.750 FPS (512 spf)\r\nBit depth : 24 bits\r\nCompression mode : Lossless / Lossy\r\nStream size : 2.89 GiB (27%)\r\nLanguage : English\r\nDefault : Yes\r\nForced : No\r\n\r\nAudio #2\r\nID : 3\r\nFormat : AC-3\r\nFormat/Info : Audio Coding 3\r\nMode extension : CM (complete main)\r\nFormat settings, Endianness : Big\r\nCodec ID : A_AC3\r\nDuration : 1 h 47 min\r\nBit rate mode : Constant\r\nBit rate : 640 kb/s\r\nChannel(s) : 6 channels\r\nChannel positions : Front: L C R, Side: L R, LFE\r\nSampling rate : 48.0 kHz\r\nFrame rate : 31.250 FPS (1536 spf)\r\nCompression mode : Lossy\r\nStream size : 492 MiB (4%)\r\nLanguage : French\r\nDefault : No\r\nForced : No\r\n\r\nChapters = YES","torrent":{"xt":"urn:btih:0a03153dbe4e26a9ead93b259d39752146d56e9a","amp;dn":"Marauders+%282016%29+HQ+1080p+Blu-ray+x264+DTS-HD+En+%2B+AC3+5.1+Fr+MS","amp;tr":["udp%3A%2F%2Ftracker.leechers-paradise.org%3A6969","udp%3A%2F%2Fzer0day.ch%3A1337","udp%3A%2F%2Fopen.demonii.com%3A1337","udp%3A%2F%2Ftracker.coppersurfer.tk%3A6969","udp%3A%2F%2Fexodus.desync.com%3A6969"],"infoHash":"0a03153dbe4e26a9ead93b259d39752146d56e9a","infoHashBuffer":{"type":"Buffer","data":[10,3,21,61,190,78,38,169,234,217,59,37,157,57,117,33,70,213,110,154]},"announce":[],"urlList":[]}}